<?xml version="1.0" standalone="no"?>
<svg xmlns:xlink="http://www.w3.org/1999/xlink" id="wave" style="transform:rotate(0deg); transition: 0.3s" viewBox="0 0 1440 490" version="1.1" xmlns="http://www.w3.org/2000/svg"><defs><linearGradient id="sw-gradient-0" x1="0" x2="0" y1="1" y2="0"><stop stop-color="rgba(255, 66, 137, 1)" offset="0%"/><stop stop-color="rgba(255, 66, 137, 1)" offset="100%"/></linearGradient></defs><path style="transform:translate(0, 0px); opacity:1" fill="url(#sw-gradient-0)" d="M0,245L20,277.7C40,310,80,376,120,400.2C160,425,200,408,240,383.8C280,359,320,327,360,277.7C400,229,440,163,480,163.3C520,163,560,229,600,269.5C640,310,680,327,720,285.8C760,245,800,147,840,98C880,49,920,49,960,98C1000,147,1040,245,1080,261.3C1120,278,1160,212,1200,204.2C1240,196,1280,245,1320,236.8C1360,229,1400,163,1440,122.5C1480,82,1520,65,1560,114.3C1600,163,1640,278,1680,277.7C1720,278,1760,163,1800,98C1840,33,1880,16,1920,57.2C1960,98,2000,196,2040,245C2080,294,2120,294,2160,245C2200,196,2240,98,2280,98C2320,98,2360,196,2400,269.5C2440,343,2480,392,2520,351.2C2560,310,2600,180,2640,122.5C2680,65,2720,82,2760,106.2C2800,131,2840,163,2860,179.7L2880,196L2880,490L2860,490C2840,490,2800,490,2760,490C2720,490,2680,490,2640,490C2600,490,2560,490,2520,490C2480,490,2440,490,2400,490C2360,490,2320,490,2280,490C2240,490,2200,490,2160,490C2120,490,2080,490,2040,490C2000,490,1960,490,1920,490C1880,490,1840,490,1800,490C1760,490,1720,490,1680,490C1640,490,1600,490,1560,490C1520,490,1480,490,1440,490C1400,490,1360,490,1320,490C1280,490,1240,490,1200,490C1160,490,1120,490,1080,490C1040,490,1000,490,960,490C920,490,880,490,840,490C800,490,760,490,720,490C680,490,640,490,600,490C560,490,520,490,480,490C440,490,400,490,360,490C320,490,280,490,240,490C200,490,160,490,120,490C80,490,40,490,20,490L0,490Z"/></svg>